<?xml version="1.0" standalone="no"?>
<!DOCTYPE svg PUBLIC "-//W3C//DTD SVG 20010904//EN"
 "http://www.w3.org/TR/2001/REC-SVG-20010904/DTD/svg10.dtd">
<svg version="1.0" xmlns="http://www.w3.org/2000/svg"
 width="500.000000pt" height="206.000000pt" viewBox="0 0 500.000000 206.000000"
 preserveAspectRatio="xMidYMid meet">

<g transform="translate(0.000000,206.000000) scale(0.100000,-0.100000)"
fill="#000000" stroke="none">
<path d="M912 1903 c-5 -16 -42 -119 -82 -231 -40 -111 -71 -204 -69 -205 2
-2 49 -23 104 -46 117 -51 214 -103 256 -139 16 -13 31 -23 33 -21 5 7 -217
669 -225 669 -4 0 -11 -12 -17 -27z"/>
<path d="M687 1280 c-4 -18 6 -26 71 -60 43 -21 75 -39 72 -39 -3 -1 -40 10
-82 23 -43 13 -79 20 -79 15 -1 -5 -2 -14 -3 -20 -1 -6 51 -27 114 -46 215
-65 365 -165 427 -286 27 -53 26 -73 -1 -32 -25 38 -113 91 -226 136 -110 43
-362 131 -365 127 -2 -2 -5 -12 -9 -24 -5 -17 -1 -23 26 -31 l33 -11 -36 -1
c-21 -1 -39 -7 -42 -14 -4 -10 16 -17 76 -26 186 -29 363 -84 439 -138 39 -26
53 -52 19 -34 -27 15 -85 27 -276 56 -93 15 -197 33 -230 40 -32 8 -60 13 -62
12 -1 -2 -50 -131 -108 -287 -59 -157 -133 -356 -166 -443 -32 -87 -59 -160
-59 -162 0 -2 107 103 238 234 201 201 467 449 509 474 8 5 34 -61 85 -213
l73 -220 173 0 c135 0 173 3 169 13 -2 6 -44 134 -93 282 -80 242 -94 276
-135 330 -59 78 -183 171 -363 274 -167 96 -181 101 -189 71z"/>
<path d="M3251 1115 c-36 -8 -68 -18 -72 -22 -4 -5 -4 -34 -2 -66 5 -49 8 -57
22 -51 109 47 223 44 279 -8 32 -31 31 -101 -3 -132 -31 -29 -95 -46 -169 -46
l-56 0 0 -60 0 -60 50 0 c133 0 205 -44 205 -125 0 -85 -55 -114 -234 -126
-123 -8 -125 -8 -160 -42 -20 -19 -46 -41 -59 -49 -22 -15 -12 -16 134 -23 87
-4 185 -5 218 -2 171 16 258 97 257 238 0 86 -30 136 -100 170 -50 25 -52 27
-30 34 109 33 161 170 106 276 -18 34 -36 51 -81 74 -50 25 -71 30 -149 32
-54 1 -119 -3 -156 -12z"/>
<path d="M3942 1111 c-157 -54 -246 -278 -212 -531 27 -200 120 -290 289 -278
102 8 173 53 217 138 23 45 31 192 14 245 -29 87 -113 144 -213 145 -69 0
-116 -18 -147 -56 l-23 -29 6 58 c8 82 51 155 108 185 37 20 54 23 106 18 35
-3 72 -10 84 -17 16 -8 23 -8 29 1 10 16 21 100 15 110 -8 13 -101 30 -163 30
-31 -1 -81 -9 -110 -19z m98 -406 c42 -22 62 -68 63 -141 1 -95 -36 -143 -111
-144 -58 0 -97 38 -107 103 -21 137 59 231 155 182z"/>
<path d="M4475 1115 c-54 -21 -109 -77 -135 -138 -82 -189 -60 -492 44 -605
56 -63 181 -89 274 -58 73 25 132 92 163 188 21 63 24 92 24 213 0 161 -15
228 -70 311 -24 37 -47 58 -82 75 -60 29 -160 35 -218 14z m131 -110 c26 -11
40 -26 57 -62 18 -41 22 -70 25 -204 6 -230 -26 -319 -113 -319 -50 0 -71 14
-97 63 -22 39 -23 54 -23 227 0 177 1 187 25 235 22 43 56 74 83 75 4 0 23 -7
43 -15z"/>
<path d="M1677 949 c-83 -19 -140 -70 -181 -159 -68 -149 -30 -347 84 -429 87
-63 257 -78 375 -34 l50 19 3 62 c2 34 -1 62 -5 62 -4 0 -35 -11 -68 -25 -80
-33 -181 -34 -235 -4 -40 22 -80 82 -80 118 0 21 3 21 220 21 l220 0 -6 63
c-16 177 -80 271 -207 304 -57 15 -113 15 -170 2z m152 -122 c34 -17 61 -56
68 -100 l6 -37 -143 0 -143 0 6 35 c7 40 31 76 67 99 30 19 106 21 139 3z"/>
<path d="M2402 952 c-38 -12 -93 -63 -113 -106 l-19 -41 0 68 0 67 -75 0 -75
0 0 -310 0 -310 85 0 85 0 0 173 c0 191 8 237 50 279 25 25 36 28 89 28 l61 0
0 80 0 80 -32 -1 c-18 -1 -43 -4 -56 -7z"/>
<path d="M2750 945 c-152 -42 -238 -172 -228 -345 11 -191 156 -312 356 -297
144 11 244 88 284 220 53 176 -37 369 -195 417 -65 20 -156 22 -217 5z m140
-115 c30 0 87 -57 106 -105 22 -59 15 -156 -16 -221 -45 -91 -168 -111 -237
-38 -41 44 -56 99 -51 190 5 99 44 156 123 175 17 4 36 5 43 3 8 -2 22 -4 32
-4z"/>
</g>
</svg>
